<svg width="270" height="207" viewBox="0 0 270 207" fill="none" xmlns="http://www.w3.org/2000/svg">
<g clip-path="url(#clip0_39_1940)">
<path d="M27.7673 145.564C47.6002 146.956 68.127 150.84 88.5669 157.213V173.605L4.74609 162.174V26.2514L27.7673 29.3879V145.564ZM134.949 176.482V179.929L118.103 177.631V168.221C123.753 170.678 129.359 173.333 134.916 176.18V176.516C134.927 176.503 134.938 176.495 134.949 176.482Z" stroke="#464668" stroke-width="10" stroke-miterlimit="10" stroke-linecap="round" stroke-linejoin="round"/>
<path d="M135.58 47.5894V176.517L135.264 176.474L135.083 176.45L134.988 176.438L134.949 176.432L134.917 176.426V48.1942C134.925 48.1821 134.941 48.17 134.949 48.1578V47.5045L134.996 47.5105L135.083 47.5227L135.265 47.5469L135.478 47.5773L135.58 47.5894ZM44.1709 132.024C57.1667 131.81 72.8315 135.211 88.5674 142.227V157.214C68.1275 150.84 47.6002 146.957 27.7678 145.565V16.6405C33.1884 17.0177 38.6633 17.5881 44.1709 18.343V132.024ZM134.916 175.748V176.18C129.359 173.333 123.753 170.678 118.103 168.221V160.057C124.015 164.707 129.676 169.94 134.916 175.748Z" stroke="#464668" stroke-width="10" stroke-miterlimit="10" stroke-linecap="round" stroke-linejoin="round"/>
<path d="M135.579 47.5894V176.517C135.532 176.493 135.492 176.469 135.446 176.45C135.383 176.414 135.327 176.383 135.264 176.353C135.217 176.329 135.17 176.305 135.122 176.286C135.066 176.25 135.004 176.22 134.948 176.196C134.94 176.19 134.925 176.184 134.917 176.178V48.1942C134.925 48.1821 134.94 48.17 134.948 48.1578V47.462C134.845 47.3407 134.743 47.2203 134.625 47.105C134.736 47.1532 134.838 47.2077 134.948 47.268C135.051 47.3161 135.161 47.3707 135.264 47.4252C135.326 47.4556 135.382 47.4855 135.445 47.5223C135.461 47.5283 135.485 47.5405 135.5 47.5465C135.525 47.5655 135.556 47.5777 135.579 47.5894Z" stroke="#464668" stroke-width="10" stroke-miterlimit="10" stroke-linecap="round" stroke-linejoin="round"/>
<path d="M134.949 47.4612V48.1574C134.938 48.1699 134.928 48.1825 134.917 48.195V175.748C129.677 169.94 124.016 164.707 118.103 160.056C108.679 152.642 98.6096 146.696 88.5679 142.226C72.832 135.211 57.1672 131.81 44.1714 132.024V3.69972C69.457 3.29299 104.856 16.5608 131.236 43.4987C132.384 44.6728 133.522 45.8764 134.627 47.105C134.741 47.2223 134.846 47.3399 134.949 47.4612Z" stroke="#464668" stroke-width="10" stroke-miterlimit="10" stroke-linecap="round" stroke-linejoin="round"/>
<path d="M135.612 48.1942V176.516C135.604 176.504 135.588 176.492 135.58 176.48C135.564 176.468 135.556 176.45 135.541 176.438C135.493 176.389 135.454 176.335 135.407 176.286C135.359 176.232 135.312 176.184 135.264 176.135C135.161 176.014 135.059 175.899 134.949 175.784C134.949 175.772 134.933 175.76 134.917 175.748V48.1942C134.925 48.1821 134.941 48.1699 134.949 48.1578V47.462C134.973 47.4802 134.988 47.4923 134.996 47.5101C135.012 47.5223 135.02 47.5344 135.028 47.5465C135.044 47.5586 135.052 47.5647 135.052 47.5768C135.13 47.6557 135.201 47.7341 135.264 47.813C135.375 47.9278 135.477 48.0426 135.58 48.1578C135.587 48.1699 135.603 48.1821 135.612 48.1942Z" stroke="#464668" stroke-width="10" stroke-miterlimit="10" stroke-linecap="round" stroke-linejoin="round"/>
<path d="M265.781 26.2498V162.176L135.58 179.928V176.48C135.587 176.493 135.603 176.505 135.611 176.517V176.178C170.625 158.232 207.777 148.022 242.76 145.566V29.3887L265.781 26.2498Z" stroke="#464668" stroke-width="10" stroke-miterlimit="10" stroke-linecap="round" stroke-linejoin="round"/>
<path d="M135.612 48.1942V176.426L135.58 176.432L135.541 176.438L135.446 176.45L135.265 176.474L134.949 176.517V47.5894L135.052 47.5773L135.264 47.5469L135.446 47.5227L135.533 47.5106L135.58 47.5045V48.1578C135.588 48.17 135.603 48.1821 135.612 48.1942Z" stroke="#464668" stroke-width="10" stroke-miterlimit="10" stroke-linecap="round" stroke-linejoin="round"/>
<path d="M242.759 16.6384V145.566C207.777 148.022 170.625 158.232 135.611 176.178V175.749C162.294 146.165 199.872 131.593 226.357 132.023V18.3442C231.864 17.5881 237.339 17.0193 242.759 16.6384Z" stroke="#464668" stroke-width="10" stroke-miterlimit="10" stroke-linecap="round" stroke-linejoin="round"/>
<path d="M135.579 48.1578C135.587 48.17 135.603 48.1821 135.611 48.1942V176.178C135.603 176.184 135.587 176.19 135.579 176.196C135.524 176.22 135.461 176.25 135.406 176.286C135.359 176.305 135.312 176.329 135.264 176.353C135.201 176.383 135.145 176.413 135.082 176.45C135.035 176.468 134.995 176.493 134.948 176.517V47.5894C134.972 47.5773 135.004 47.5651 135.027 47.5469C135.043 47.5409 135.066 47.5287 135.082 47.5227C135.145 47.4863 135.2 47.456 135.264 47.4256C135.366 47.3711 135.476 47.3165 135.579 47.2684C135.69 47.2081 135.792 47.1535 135.902 47.1054C135.784 47.2203 135.681 47.3411 135.579 47.4624V48.1578H135.579Z" stroke="#464668" stroke-width="10" stroke-miterlimit="10" stroke-linecap="round" stroke-linejoin="round"/>
<path d="M226.357 3.70012V132.022C199.872 131.593 162.294 146.164 135.611 175.748V48.1942C135.603 48.1821 135.587 48.1699 135.58 48.1578V47.462C135.682 47.3407 135.785 47.2203 135.903 47.105C137.016 45.8772 138.143 44.6732 139.303 43.4999C165.678 16.56 201.071 3.29501 226.357 3.70012ZM118.103 160.057V203.713L103.335 192.392L88.5674 203.713V142.226C98.6096 146.697 108.679 152.643 118.103 160.057Z" stroke="#464668" stroke-width="10" stroke-miterlimit="10" stroke-linecap="round" stroke-linejoin="round"/>
</g>
<defs>
<clipPath id="clip0_39_1940">
<rect width="270" height="207" fill="white"/>
</clipPath>
</defs>
</svg>
